<?xml version="1.0" encoding="UTF-8" standalone="no"?>
<!-- Created with Inkscape (http://www.inkscape.org/) -->

<svg
   width="1920"
   height="1080"
   viewBox="0 0 1920 1080"
   version="1.1"
   id="svg1"
   inkscape:version="1.4.2 (f4327f4, 2025-05-13)"
   sodipodi:docname="jostakk.svg"
   xmlns:inkscape="http://www.inkscape.org/namespaces/inkscape"
   xmlns:sodipodi="http://sodipodi.sourceforge.net/DTD/sodipodi-0.dtd"
   xmlns="http://www.w3.org/2000/svg"
   xmlns:svg="http://www.w3.org/2000/svg">
  <sodipodi:namedview
     id="namedview1"
     pagecolor="#ffffff"
     bordercolor="#000000"
     borderopacity="0.25"
     inkscape:showpageshadow="2"
     inkscape:pageopacity="0.0"
     inkscape:pagecheckerboard="0"
     inkscape:deskcolor="#d1d1d1"
     inkscape:document-units="px"
     inkscape:lockguides="false"
     inkscape:zoom="0.64818122"
     inkscape:cx="978.89292"
     inkscape:cy="540.74384"
     inkscape:window-width="1366"
     inkscape:window-height="697"
     inkscape:window-x="-8"
     inkscape:window-y="-8"
     inkscape:window-maximized="1"
     inkscape:current-layer="layer1" />
  <defs
     id="defs1">
    <inkscape:path-effect
       effect="perspective-envelope"
       up_left_point="763.92319,398.67299"
       up_right_point="1172.2919,399.34479"
       down_left_point="884.17583,543.68977"
       down_right_point="1065.4753,543.68977"
       id="path-effect1"
       is_visible="true"
       lpeversion="1"
       deform_type="perspective"
       horizontal_mirror="false"
       vertical_mirror="false"
       overflow_perspective="false" />
    <rect
       x="811.63636"
       y="440.72727"
       width="628.36364"
       height="264"
       id="rect1" />
  </defs>
  <g
     inkscape:label="Capa 1"
     inkscape:groupmode="layer"
     id="layer1">
    <path
       d="m 834.38468,422.25546 59.91832,96.96879 c 2.51624,4.07216 3.98153,6.57175 4.56819,7.66023 0.56783,1.05569 -2.18212,0.74456 -2.29185,1.59297 -0.0926,0.83754 2.34205,2.62481 1.46337,2.94191 -0.86828,0.30121 -2.37654,0.45115 -4.5279,0.45086 l -7.45095,4.93285 -50.59716,-51.85331 c 0.86592,0.0807 49.72532,40.62373 49.99951,40.62378 0.72581,1.5e-4 1.35586,-0.52081 1.35586,-0.52081 -0.52514,0.0358 -29.44679,-21.79431 -29.9125,-22.48295 -0.46987,-0.69474 13.55743,6.54181 12.05164,4.70218 l -73.62475,-98.70177 z m 86.96109,93.42063 c 1.75398,4.29407 2.83666,7.1862 3.31673,8.83574 0.47822,1.59452 0.49468,3.02202 0.0641,4.29201 -0.40674,1.24576 -1.26167,2.18622 -2.56069,2.83421 -1.286,0.64149 -2.97023,0.9597 -5.06241,0.95943 -1.98538,-2.5e-4 -3.92871,-0.29766 -5.84344,-0.89646 -1.92546,-0.61895 -3.73163,-1.55126 -5.42891,-2.81057 -1.73076,-1.28415 -3.15494,-2.71061 -4.26624,-4.28784 -1.13797,-1.61508 -2.94471,-4.53667 -5.51598,-8.93457 l -4.65291,-7.95833 c -2.98092,-5.09856 -5.10587,-8.91511 -6.24603,-11.23723 -1.16768,-2.41434 -1.75667,-4.67862 -1.74051,-6.77745 0.0373,-2.15205 0.8021,-3.84146 2.30912,-5.03927 1.52794,-1.21444 3.75769,-1.82699 6.67314,-1.82497 2.76629,0.002 5.5192,0.59064 8.23158,1.75447 2.68584,1.122 5.15319,2.79021 7.38453,4.97298 2.17532,2.12797 3.86228,4.38348 5.07492,6.7542 1.17834,2.30366 2.87868,6.18194 5.01342,11.40818 z m -18.73625,-16.10663 c -1.24885,-2.577 -2.19435,-4.2629 -2.81014,-4.99973 -0.61316,-0.76755 -1.31191,-1.15425 -2.09198,-1.15469 -0.66006,-3.8e-4 -1.01205,0.31343 -1.0557,0.93787 -0.0356,0.59601 0.69246,2.35892 2.14457,5.21464 l 11.16255,21.95227 c 1.17697,2.31464 1.97255,3.70442 2.41356,4.22417 0.45366,0.51574 1.01529,0.77218 1.68754,0.77231 0.68824,1.4e-4 0.98422,-0.29506 0.88731,-0.88953 -0.0978,-0.59981 -0.7036,-2.05031 -1.84584,-4.40731 z m 43.61773,7.70193 -11.74996,-5.2345 -1.16222,-4.01484 c -0.56294,-1.94463 -1.07725,-3.20789 -1.535,-3.75715 -0.4608,-0.55294 -1.04214,-0.831 -1.74167,-0.83139 -0.75952,-4.4e-4 -1.22342,0.37342 -1.39056,1.11654 -0.14589,0.73648 0.0144,1.84082 0.4737,3.2981 0.57855,1.83576 1.2154,3.19102 1.91439,4.08919 0.67221,0.88801 2.11319,1.94713 4.3024,3.17023 6.09347,3.41628 9.93906,6.10721 11.70046,8.14247 1.71356,1.98001 3.00152,5.0609 3.85995,9.10116 0.59372,2.79438 0.68966,4.78181 0.31127,6.02909 -0.3557,1.22396 -1.33715,2.2362 -2.93416,3.04607 -1.5808,0.78557 -3.53912,1.17461 -5.88955,1.17431 -2.57952,-3.2e-4 -4.93691,-0.45388 -7.09522,-1.37051 -2.17422,-0.92998 -3.83546,-2.13386 -4.97926,-3.6267 -1.17036,-1.52751 -2.32362,-3.75714 -3.47638,-6.75872 l -1.04974,-2.73335 9.97797,0.003 1.56553,4.99616 c 0.46003,1.4681 0.8795,2.3953 1.26408,2.80334 0.39824,0.40556 0.93239,0.60748 1.60423,0.60761 0.67184,1.3e-4 1.09314,-0.25603 1.26491,-0.77148 0.18926,-0.51945 0.13703,-1.29831 -0.16123,-2.34565 -0.67276,-2.3624 -1.45399,-3.95209 -2.33309,-4.71306 -0.90577,-0.7693 -2.98582,-2.07354 -6.29661,-3.94248 -3.40543,-1.93754 -5.75771,-3.37699 -6.9991,-4.28739 -1.25679,-0.9217 -2.51052,-2.21518 -3.77019,-3.89959 -1.26949,-1.72243 -2.44866,-3.9793 -3.54489,-6.81632 -1.65239,-4.27635 -2.44446,-7.55092 -2.30624,-9.68965 0.16247,-2.19416 1.11871,-3.94285 2.88481,-5.217 1.78306,-1.32018 4.27964,-1.98668 7.46927,-1.98447 3.48706,0.002 6.64604,0.72704 9.4425,2.15618 2.77205,1.40604 4.76663,3.15036 5.99462,5.21196 1.21344,1.98795 2.3147,5.27347 3.28408,9.70402 z m 39.34518,-48.58956 -11.34884,37.76851 -10.41779,-9.55774 5.91836,44.98786 -12.58679,0.39158 -3.19067,-50.59553 -11.2747,14.10968 -18.90106,-36.19006 z m 8.65333,11.09557 3.83881,62.10686 -9.91247,-0.001 -0.0876,-6.54802 -3.65197,-7.6e-4 -0.79189,6.54817 -14.2633,9.48911 8.60803,-57.09707 z m -6.03509,48.40466 c -0.27259,-4.98351 -0.49889,-11.64381 -0.67844,-20.40662 -1.63316,9.98298 -2.58657,16.53921 -2.99031,20.40556 z m 109.44043,-118.96009 -76.8453,110.33538 6.3326,22.33081 -13.8101,-0.002 -0.025,-16.80883 -3.8835,16.8083 -11.98506,9.82316 10.57116,-80.11417 19.7798,-15.33317 -12.4956,60.2165 20.6194,-50.72382 z m 63.3467,15.41192 -107.5261,94.93614 11.0218,34.11974 -25.9083,-11.80007 3.3092,-16.80291 -6.9619,17.19534 -14.1467,7.02938 32.8892,-73.94828 23.4342,-11.6005 -31.5235,52.72819 48.9309,-56.89953 z"
       id="text1"
       style="font-stretch:condensed;font-size:74.6667px;font-family:Impact;-inkscape-font-specification:'Impact, Condensed';white-space:pre;opacity:0.97"
       transform="matrix(3.2240194,0,0,3.2240194,-2136.4115,-1032.7248)"
       aria-label="JOSTAKK"
       sodipodi:nodetypes="cscccsccssssccsccsscssssccsscssssscscsscssssccssscsccssccscssccscscsccscsccsccsccccccccccccccccccccccccccccccccccccccccccccccc"
       inkscape:path-effect="#path-effect1"
       inkscape:original-d="m 832.98625,415.22355 0.48902,80.67239 c 0.0358,5.90614 -0.0608,9.71007 -0.18229,11.41146 -0.12153,1.67709 -4.03957,1.18078 -5.0361,2.54189 -0.97222,1.36111 1.04999,4.32443 -0.6514,4.85916 -1.67709,0.51041 -4.21702,0.76562 -7.6198,0.76562 l -17.76975,8.73343 -12.49996,-67.06114 c 0.92362,0.0729 24.16902,48.11937 24.58221,48.11937 1.09375,0 2.58854,-0.80208 2.58854,-0.80208 -0.82598,0.0551 -18.48574,-28.73487 -18.38852,-29.51265 0.0972,-0.77778 11.29446,7.67228 11.07746,5.44673 l -1.21436,-71.51266 z m 41.50467,75.78697 c 0,5.93056 -0.14584,10.13542 -0.43751,12.61459 -0.26736,2.45486 -1.14236,4.70312 -2.625,6.74479 -1.45833,2.04167 -3.43924,3.60938 -5.94271,4.70313 -2.50347,1.09375 -5.42014,1.64063 -8.75,1.64063 -3.15973,0 -6.00348,-0.51042 -8.53126,-1.53125 -2.50347,-1.04514 -4.52083,-2.6007 -6.05208,-4.66667 -1.53125,-2.06597 -2.44271,-4.31424 -2.73438,-6.7448 -0.29167,-2.43055 -0.4375,-6.68403 -0.4375,-12.76042 v -10.09896 c 0,-5.93056 0.13368,-10.12327 0.40104,-12.57813 0.29167,-2.47917 1.16667,-4.73959 2.625,-6.78126 1.48264,-2.04167 3.4757,-3.60938 5.97917,-4.70313 2.50347,-1.09375 5.42014,-1.64062 8.75001,-1.64062 3.15972,0 5.99132,0.52257 8.49479,1.56771 2.52778,1.02083 4.5573,2.56424 6.08855,4.63021 1.53125,2.06597 2.4427,4.31424 2.73437,6.74479 0.29167,2.43056 0.43751,6.68404 0.43751,12.76043 z m -15.34897,-19.39584 c 0,-2.74653 -0.15799,-4.49654 -0.47396,-5.25001 -0.29167,-0.77777 -0.91146,-1.16666 -1.85938,-1.16666 -0.80208,0 -1.42187,0.31597 -1.85937,0.94791 -0.41319,0.60764 -0.61979,2.43056 -0.61979,5.46876 v 27.56251 c 0,3.42709 0.13368,5.54167 0.40104,6.34375 0.29167,0.80209 0.94792,1.20313 1.96875,1.20313 1.04514,0 1.71354,-0.46181 2.00521,-1.38542 0.29167,-0.92361 0.4375,-3.12327 0.4375,-6.59896 z m 52.92197,8.74413 -13.58341,-6.04622 v -4.375 c 0,-2.04167 -0.18229,-3.34201 -0.54688,-3.90104 -0.36458,-0.55903 -0.97222,-0.83854 -1.82291,-0.83854 -0.92361,0 -1.62848,0.37674 -2.11459,1.13021 -0.46181,0.75347 -0.69271,1.89583 -0.69271,3.42708 0,1.96875 0.26736,3.45139 0.80209,4.44792 0.51041,0.99653 1.95659,2.19965 4.33854,3.60938 6.82987,4.05903 11.13195,7.38889 12.90626,9.98958 1.77431,2.6007 2.66146,6.79341 2.66146,12.57814 0,4.20486 -0.49827,7.30382 -1.4948,9.29688 -0.97222,1.99305 -2.86805,3.67014 -5.6875,5.03125 -2.81945,1.33681 -6.1007,2.00521 -9.84375,2.00521 -4.10764,0 -7.6198,-0.77778 -10.53647,-2.33334 -2.89236,-1.55555 -4.78819,-3.53646 -5.6875,-5.94271 -0.89931,-2.40625 -1.34896,-5.82119 -1.34896,-10.2448 v -3.86458 h 14.25522 v 7.18229 c 0,2.21181 0.19444,3.63368 0.58333,4.26563 0.41319,0.63195 1.13021,0.94792 2.15104,0.94792 1.02083,0 1.77431,-0.40104 2.26042,-1.20313 0.51042,-0.80208 0.76563,-1.99305 0.76563,-3.57292 0,-3.47569 -0.47396,-5.74826 -1.42188,-6.81771 -0.97222,-1.06944 -3.36632,-2.8559 -7.18229,-5.35937 -3.81598,-2.52778 -6.34376,-4.36285 -7.58334,-5.50522 -1.23959,-1.14236 -2.27257,-2.72222 -3.09896,-4.73958 -0.80209,-2.01736 -1.20313,-4.59375 -1.20313,-7.72917 0,-4.52083 0.57118,-7.82639 1.71355,-9.91667 1.16667,-2.09028 3.03819,-3.71875 5.61458,-4.88542 2.57639,-1.19097 5.68751,-1.78646 9.33334,-1.78646 3.98611,0 7.37674,0.6441 10.17188,1.93229 2.81945,1.28819 4.67882,2.91667 5.57813,4.88542 0.92361,1.94445 1.38541,5.26216 1.38541,9.95313 z m 50.44128,-44.06488 -12.76425,31.96658 -11.8018,-9.40523 2.68721,56.61879 -20.05159,0.6718 6.71803,-61.99321 -16.46796,13.43605 -10.74884,-30.62298 z m 9.54879,8.06162 13.48907,71.11852 h -15.71355 l -0.76563,-10.60938 h -5.50521 l -0.91146,10.60938 -23.95747,17.46686 15.86372,-76.49293 z m -3.42761,50.0456 c -0.77777,-6.68403 -1.55555,-14.93577 -2.33333,-24.75522 -1.55556,11.27778 -2.52778,19.52952 -2.91667,24.75522 z m 79.62242,-89.68194 -36.3303,78.37985 19.702,32.37501 h -21.9056 l -6.1979,-25.30209 v 25.30209 l -16.69255,18.13867 -1.34361,-95.30341 16.69256,-10.07703 1.3436,51.14801 8.8331,-45.10179 z m 58.111,6.6505 -50.3428,71.72935 48.5895,54.54449 -54.8238,-22.16948 -6.198,-25.30209 0.6718,25.97389 -18.7079,12.76425 8.0616,-87.91358 18.7079,-8.06162 -8.7334,46.44539 23.6129,-49.1326 z" />
  </g>
</svg>
